<svg version="1.1" id="Layer_1" xmlns="http://www.w3.org/2000/svg" xmlns:xlink="http://www.w3.org/1999/xlink" x="0px" y="0px"
	 width="100%" viewBox="0 0 595 297" enable-background="new 0 0 595 297" xml:space="preserve">
<path fill="#F5F5F5" opacity="1.000000" stroke="none" 
	d="
M353.000000,298.000000 
	C235.366150,298.000000 118.232300,298.000000 1.049224,298.000000 
	C1.049224,199.060562 1.049224,100.121101 1.049224,1.090817 
	C199.217209,1.090817 397.434479,1.090817 595.825867,1.090817 
	C595.825867,99.999763 595.825867,198.999847 595.825867,298.000000 
	C515.121033,298.000000 434.310516,298.000000 353.000000,298.000000 
M398.994324,229.003113 
	C398.994324,229.003113 398.923279,228.937012 399.637878,228.897018 
	C401.050964,226.525009 402.464081,224.152985 403.989960,221.363373 
	C403.989960,221.363373 404.271942,221.035385 404.987671,221.002579 
	C406.048157,219.934372 407.528076,219.053268 408.101471,217.767792 
	C412.020508,208.981506 416.221619,200.272919 419.344482,191.199493 
	C420.961121,186.502441 420.557831,181.110199 420.995117,175.356506 
	C421.080139,174.913498 421.165131,174.470505 422.039825,173.963516 
	C422.688538,172.824844 423.885651,171.693359 423.900665,170.546387 
	C424.042419,159.726929 424.339355,148.886963 423.798157,138.092682 
	C423.593384,134.008896 421.319824,130.028854 419.411194,126.087357 
	C419.240082,126.180466 419.069000,126.273575 418.824463,126.225922 
	C418.824463,126.225922 418.931915,126.109062 418.808350,125.335190 
	C415.987091,123.419876 413.279724,122.609398 410.096130,126.281708 
	C405.723663,126.234016 401.351227,126.186325 396.912354,125.523064 
	C396.505920,125.189911 396.099457,124.856758 395.693024,124.523605 
	C395.469055,125.061981 395.245056,125.600357 394.089722,126.282280 
	C368.718445,126.236847 343.347168,126.191414 317.856201,125.405853 
	C315.914490,123.495323 314.175964,122.908218 312.187653,126.290092 
	C310.496063,126.333519 308.804504,126.376945 306.453888,126.129501 
	C305.976013,126.091461 305.498169,126.053421 304.229858,126.190178 
	C303.825500,127.692215 303.080841,129.191849 303.070160,130.696686 
	C302.977020,143.833267 303.185394,156.974167 302.922791,170.106171 
	C302.829773,174.759064 304.409851,176.124191 308.966400,176.070404 
	C327.089935,175.856369 345.217468,175.974609 363.343536,175.991821 
	C365.090637,175.993500 366.837616,176.147705 368.915070,176.246887 
	C368.683411,177.666489 368.635681,178.471893 368.415222,179.226837 
	C366.972961,184.166046 365.493286,189.094315 364.000000,194.000000 
	C364.000000,194.000000 364.028625,194.023804 363.319000,194.080185 
	C357.918274,199.764618 352.513550,205.445312 347.133423,211.149200 
	C346.945374,211.348526 347.002808,211.779388 346.479523,212.593216 
	C319.729370,227.956604 292.794342,228.827087 266.066650,212.882919 
	C250.930374,203.853531 241.181992,190.126724 234.783997,173.099014 
	C229.457092,157.092407 230.091080,141.096649 235.231689,124.473244 
	C235.862564,122.932159 236.484970,121.387543 237.125580,119.850502 
	C253.902924,79.595505 303.109467,62.364689 339.838959,83.982414 
	C344.230286,86.567009 348.225464,89.824692 351.597565,92.201721 
	C363.186035,80.681122 374.568329,69.365509 386.231934,57.770245 
	C382.414856,54.733730 378.544006,51.309902 374.339325,48.362309 
	C326.646576,14.928599 260.196655,20.474974 218.668823,61.412270 
	C208.792969,71.147705 200.051636,81.800873 194.173492,95.250938 
	C182.774765,118.105103 178.747513,142.148483 182.662170,167.431091 
	C184.653839,180.294159 187.885208,192.777313 194.809097,204.792816 
	C216.228485,245.078186 249.775452,267.702301 295.065430,271.725739 
	C327.954742,274.647491 358.018616,266.170715 384.668365,244.963089 
	C388.975586,242.742813 393.046967,240.304855 393.991760,235.003998 
	C393.991760,235.003998 393.919891,234.935059 394.634644,234.905762 
	C396.067108,232.913879 397.499603,230.921997 398.994324,229.003113 
z"/>
<path fill="#E2402D" opacity="1.000000" stroke="none" 
	d="
M194.717819,94.841408 
	C200.051636,81.800873 208.792969,71.147705 218.668823,61.412270 
	C260.196655,20.474974 326.646576,14.928599 374.339325,48.362309 
	C378.544006,51.309902 382.414856,54.733730 386.231934,57.770245 
	C374.568329,69.365509 363.186035,80.681122 351.597565,92.201721 
	C348.225464,89.824692 344.230286,86.567009 339.838959,83.982414 
	C303.109467,62.364689 253.902924,79.595505 237.125580,119.850502 
	C236.484970,121.387543 235.862564,122.932159 234.721725,124.710083 
	C233.401428,124.381714 232.567886,123.846825 231.784241,123.246780 
	C219.424988,113.783272 207.072128,104.311378 194.717819,94.841408 
z"/>
<path fill="#2DA24D" opacity="1.000000" stroke="none" 
	d="
M383.923615,244.924423 
	C358.018616,266.170715 327.954742,274.647491 295.065430,271.725739 
	C249.775452,267.702301 216.228485,245.078186 195.083099,204.262054 
	C195.906921,203.364594 196.478165,203.026093 197.003464,202.627090 
	C209.629517,193.036850 222.250671,183.440140 234.872711,173.844604 
	C241.181992,190.126724 250.930374,203.853531 266.066650,212.882919 
	C292.794342,228.827087 319.729370,227.956604 346.967224,212.366440 
	C347.785126,212.081436 348.095032,211.967834 348.505554,212.156403 
	C352.206421,215.621964 355.654572,218.899521 359.392578,221.804047 
	C368.226379,228.668152 377.198059,235.354828 385.959595,242.367889 
	C385.178009,243.389816 384.550812,244.157120 383.923615,244.924423 
z"/>
<path fill="#3C7DEC" opacity="1.000000" stroke="none" 
	d="
M386.113983,242.113251 
	C377.198059,235.354828 368.226379,228.668152 359.392578,221.804047 
	C355.654572,218.899521 352.206421,215.621964 348.749237,211.869507 
	C353.924164,205.491302 358.976379,199.757553 364.028625,194.023804 
	C364.028625,194.023804 364.000000,194.000000 364.298645,193.829498 
	C366.740601,187.147232 368.883972,180.635468 370.749573,173.800446 
	C368.675293,173.316528 366.879059,173.019775 365.082275,173.016174 
	C346.992371,172.979782 328.901703,172.907776 310.813049,173.060440 
	C307.208282,173.090866 305.851196,172.177597 305.914551,168.344070 
	C306.136566,154.904694 306.024109,141.459793 306.504822,128.008896 
	C344.778320,128.026688 382.585632,128.052567 420.550568,128.436020 
	C423.156677,143.844391 422.900665,158.927582 421.250153,174.027496 
	C421.165131,174.470505 421.080139,174.913498 420.845215,176.017365 
	C417.899780,192.455841 412.278870,207.187317 404.271942,221.035385 
	C404.271942,221.035385 403.989960,221.363373 403.658539,221.766388 
	C401.859161,224.425262 400.391235,226.681137 398.923279,228.937012 
	C398.923279,228.937012 398.994324,229.003113 398.672241,229.119904 
	C396.873413,231.136139 395.396667,233.035599 393.919891,234.935059 
	C393.919891,234.935059 393.991760,235.003998 393.664062,235.109497 
	C390.928894,237.514420 388.521423,239.813843 386.113983,242.113251 
z"/>
<path fill="#EFB506" opacity="1.000000" stroke="none" 
	d="
M234.828354,173.471802 
	C222.250671,183.440140 209.629517,193.036850 197.003464,202.627090 
	C196.478165,203.026093 195.906921,203.364594 195.042389,203.893661 
	C187.885208,192.777313 184.653839,180.294159 182.662170,167.431091 
	C178.747513,142.148483 182.774765,118.105103 194.445648,95.046173 
	C207.072128,104.311378 219.424988,113.783272 231.784241,123.246780 
	C232.567886,123.846825 233.401428,124.381714 234.541473,125.027664 
	C230.091080,141.096649 229.457092,157.092407 234.828354,173.471802 
z"/>
<path fill="#DBECFC" opacity="1.000000" stroke="none" 
	d="
M371.027344,174.123703 
	C368.883972,180.635468 366.740601,187.147232 364.311554,193.842575 
	C365.493286,189.094315 366.972961,184.166046 368.415222,179.226837 
	C368.635681,178.471893 368.683411,177.666489 368.915070,176.246887 
	C366.837616,176.147705 365.090637,175.993500 363.343536,175.991821 
	C345.217468,175.974609 327.089935,175.856369 308.966400,176.070404 
	C304.409851,176.124191 302.829773,174.759064 302.922791,170.106171 
	C303.185394,156.974167 302.977020,143.833267 303.070160,130.696686 
	C303.080841,129.191849 303.825500,127.692215 304.589050,126.345215 
	C304.948242,126.500252 304.977325,126.989769 304.909851,127.241302 
	C304.877533,127.662842 304.912689,127.832855 304.867126,128.465759 
	C304.769623,142.545425 304.854156,156.163574 304.667084,169.778000 
	C304.618408,173.318115 305.822021,174.267548 309.253510,174.241806 
	C329.843933,174.087372 350.435883,174.140274 371.027344,174.123703 
z"/>
<path fill="#3672C7" opacity="1.000000" stroke="none" 
	d="
M304.947876,128.002869 
	C304.912689,127.832855 304.877533,127.662842 305.196198,127.239098 
	C306.071014,126.797035 306.591949,126.608704 307.112915,126.420364 
	C308.804504,126.376945 310.496063,126.333519 313.012207,126.310394 
	C315.216461,126.269135 316.596161,126.207565 317.975891,126.145996 
	C343.347168,126.191414 368.718445,126.236847 394.877747,126.297905 
	C396.103424,126.255226 396.541077,126.196922 396.978760,126.138626 
	C401.351227,126.186325 405.723663,126.234016 410.991028,126.301659 
	C414.234619,126.250763 416.583252,126.179916 418.931915,126.109070 
	C418.931915,126.109062 418.824463,126.225922 419.018677,126.459885 
	C419.480804,126.859825 419.772156,126.934357 420.214294,127.194290 
	C420.358734,127.673584 420.375824,127.876022 420.392944,128.078461 
	C382.585632,128.052567 344.778320,128.026688 306.231964,128.003220 
	C305.311249,128.004700 305.129547,128.003784 304.947876,128.002869 
z"/>
<path fill="#DBECFC" opacity="1.000000" stroke="none" 
	d="
M404.629822,221.018982 
	C412.278870,207.187317 417.899780,192.455841 420.881195,176.355133 
	C420.557831,181.110199 420.961121,186.502441 419.344482,191.199493 
	C416.221619,200.272919 412.020508,208.981506 408.101471,217.767792 
	C407.528076,219.053268 406.048157,219.934372 404.629822,221.018982 
z"/>
<path fill="#DBECFC" opacity="1.000000" stroke="none" 
	d="
M420.550568,128.436035 
	C420.375824,127.876022 420.358734,127.673584 420.204071,126.963913 
	C420.066498,126.456688 419.989258,126.001534 419.989258,126.001526 
	C421.319824,130.028854 423.593384,134.008896 423.798157,138.092682 
	C424.339355,148.886963 424.042419,159.726929 423.900665,170.546387 
	C423.885651,171.693359 422.688538,172.824844 421.644989,173.995514 
	C422.900665,158.927582 423.156677,143.844391 420.550568,128.436035 
z"/>
<path fill="#DBECFC" opacity="1.000000" stroke="none" 
	d="
M363.673828,194.051987 
	C358.976379,199.757553 353.924164,205.491302 348.628265,211.511963 
	C348.095032,211.967834 347.785126,212.081436 347.200348,212.121002 
	C347.002808,211.779388 346.945374,211.348526 347.133423,211.149200 
	C352.513550,205.445312 357.918274,199.764618 363.673828,194.051987 
z"/>
<path fill="#DBECFC" opacity="1.000000" stroke="none" 
	d="
M385.959595,242.367889 
	C388.521423,239.813843 390.928894,237.514420 393.633942,235.070435 
	C393.046967,240.304855 388.975586,242.742813 384.295990,244.943756 
	C384.550812,244.157120 385.178009,243.389816 385.959595,242.367889 
z"/>
<path fill="#DBECFC" opacity="1.000000" stroke="none" 
	d="
M418.870117,125.722130 
	C416.583252,126.179916 414.234619,126.250763 411.452789,126.229828 
	C413.279724,122.609398 415.987091,123.419876 418.870117,125.722130 
z"/>
<path fill="#DBECFC" opacity="1.000000" stroke="none" 
	d="
M399.280579,228.917023 
	C400.391235,226.681137 401.859161,224.425262 403.602142,221.975189 
	C402.464081,224.152985 401.050964,226.525009 399.280579,228.917023 
z"/>
<path fill="#DBECFC" opacity="1.000000" stroke="none" 
	d="
M394.277283,234.920410 
	C395.396667,233.035599 396.873413,231.136139 398.641113,229.083405 
	C397.499603,230.921997 396.067108,232.913879 394.277283,234.920410 
z"/>
<path fill="#DBECFC" opacity="1.000000" stroke="none" 
	d="
M317.916046,125.775925 
	C316.596161,126.207565 315.216461,126.269135 313.430908,126.239220 
	C314.175964,122.908218 315.914490,123.495323 317.916046,125.775925 
z"/>
<path fill="#DBECFC" opacity="1.000000" stroke="none" 
	d="
M396.945557,125.830841 
	C396.541077,126.196922 396.103424,126.255226 395.343414,126.226135 
	C395.245056,125.600357 395.469055,125.061981 395.693024,124.523605 
	C396.099457,124.856758 396.505920,125.189911 396.945557,125.830841 
z"/>
<path fill="#8AABD9" opacity="1.000000" stroke="none" 
	d="
M306.783386,126.274933 
	C306.591949,126.608704 306.071014,126.797035 305.263672,126.987564 
	C304.977325,126.989769 304.948242,126.500252 304.984253,126.257812 
	C305.498169,126.053421 305.976013,126.091461 306.783386,126.274933 
z"/>
<path fill="#8AABD9" opacity="1.000000" stroke="none" 
	d="
M419.700226,126.044449 
	C419.989258,126.001534 420.066498,126.456688 420.076721,126.687065 
	C419.772156,126.934357 419.480804,126.859825 419.055359,126.530266 
	C419.069000,126.273575 419.240082,126.180466 419.700226,126.044449 
z"/>
<path fill="#4175CA" opacity="1.000000" stroke="none" 
	d="
M304.867126,128.465759 
	C305.129547,128.003784 305.311249,128.004700 305.765808,128.011307 
	C306.024109,141.459793 306.136566,154.904694 305.914551,168.344070 
	C305.851196,172.177597 307.208282,173.090866 310.813049,173.060440 
	C328.901703,172.907776 346.992371,172.979782 365.082275,173.016174 
	C366.879059,173.019775 368.675293,173.316528 370.749573,173.800446 
	C350.435883,174.140274 329.843933,174.087372 309.253510,174.241806 
	C305.822021,174.267548 304.618408,173.318115 304.667084,169.778000 
	C304.854156,156.163574 304.769623,142.545425 304.867126,128.465759 
z"/>
</svg>